<!DOCTYPE svg PUBLIC "-//W3C//DTD SVG 1.1//EN" "http://www.w3.org/Graphics/SVG/1.1/DTD/svg11.dtd">

<!-- Uploaded to: SVG Repo, www.svgrepo.com, Transformed by: SVG Repo Mixer Tools -->
<svg fill="#ffffff" width="64px" height="64px" viewBox="0 0 52 52" data-name="Layer 1" id="Layer_1" xmlns="http://www.w3.org/2000/svg" stroke="#ffffff" stroke-width="0.0005200000000000001">

<g id="SVGRepo_bgCarrier" stroke-width="0"/>

<g id="SVGRepo_tracerCarrier" stroke-linecap="round" stroke-linejoin="round"/>

<g id="SVGRepo_iconCarrier">

<path d="M50,8H38V2a2,2,0,0,0-2-2H16a2,2,0,0,0-2,2V8H2a2,2,0,0,0,0,4H9V50a2,2,0,0,0,2,2H41a2,2,0,0,0,2-2V12h7a2,2,0,0,0,0-4ZM18,4H34V8H18ZM39,48H13V12H39Z"/>

<path d="M26,14.45a2,2,0,0,0-2,2V44.89a2,2,0,0,0,4,0V16.45A2,2,0,0,0,26,14.45Z"/>

<path d="M33.56,14.45a2,2,0,0,0-2,2V44.89a2,2,0,1,0,4,0V16.45A2,2,0,0,0,33.56,14.45Z"/>

<path d="M18.44,14.45a2,2,0,0,0-2,2V44.89a2,2,0,0,0,4,0V16.45A2,2,0,0,0,18.44,14.45Z"/>

</g>

</svg>
